<svg id="menu" xmlns="http://www.w3.org/2000/svg" width="22" height="18.7" viewBox="0 0 22 18.7">
  <path id="Rectangle_2" data-name="Rectangle 2" d="M0,1.65A1.65,1.65,0,0,1,1.65,0h18.7a1.65,1.65,0,0,1,0,3.3H1.65A1.65,1.65,0,0,1,0,1.65Z" fill="#2675ec"/>
  <path id="Rectangle_4" data-name="Rectangle 4" d="M0,1.65A1.65,1.65,0,0,1,1.65,0h9.9a1.65,1.65,0,0,1,0,3.3H1.65A1.65,1.65,0,0,1,0,1.65Z" transform="translate(0 7.7)" fill="#2675ec"/>
  <path id="Rectangle_5" data-name="Rectangle 5" d="M0,1.65A1.65,1.65,0,0,1,1.65,0h18.7a1.65,1.65,0,0,1,0,3.3H1.65A1.65,1.65,0,0,1,0,1.65Z" transform="translate(0 15.4)" fill="#2675ec"/>
</svg>
